<?xml version="1.0"?>
<svg xmlns="http://www.w3.org/2000/svg" height="512px" viewBox="0 -64 384 384" width="512px"><path d="m318.65625 97.34375c-6.902344-37.136719-39.550781-65.34375-78.65625-65.34375-38.632812 0-70.960938 27.527344-78.390625 64h-81.609375c-18.023438 0-34.609375 6.0625-48 16.152344v-32.152344c0-26.472656 21.527344-48 48-48h32v-32h-32c-44.113281 0-80 35.886719-80 80v176h384v-80c0-39.113281-28.207031-71.753906-65.34375-78.65625zm33.34375 126.65625h-320v-48c0-26.472656 21.527344-48 48-48h81.609375c7.4375 36.472656 39.757813 64 78.390625 64v-32c-26.472656 0-48-21.527344-48-48s21.527344-48 48-48 48 21.527344 48 48v16h16c26.472656 0 48 21.527344 48 48zm0 0" fill="#D80027"/><path d="m288 160h32v32h-32zm0 0" fill="#D80027"/></svg>
